<svg width="251" height="109" viewBox="0 0 251 109" fill="none" xmlns="http://www.w3.org/2000/svg">
<path d="M15.9683 104.01H7.62826L6.24826 108H1.83826L9.36826 87.03H14.2583L21.7883 108H17.3483L15.9683 104.01ZM14.8283 100.65L11.7983 91.89L8.76826 100.65H14.8283Z" fill="#1B1B1B"/>
<path d="M58.9829 97.26C60.1629 97.48 61.1329 98.07 61.8929 99.03C62.6529 99.99 63.0329 101.09 63.0329 102.33C63.0329 103.45 62.7529 104.44 62.1929 105.3C61.6529 106.14 60.8629 106.8 59.8229 107.28C58.7829 107.76 57.5529 108 56.1329 108H47.1029V87.06H55.7429C57.1629 87.06 58.3829 87.29 59.4029 87.75C60.4429 88.21 61.2229 88.85 61.7429 89.67C62.2829 90.49 62.5529 91.42 62.5529 92.46C62.5529 93.68 62.2229 94.7 61.5629 95.52C60.9229 96.34 60.0629 96.92 58.9829 97.26ZM51.3029 95.7H55.1429C56.1429 95.7 56.9129 95.48 57.4529 95.04C57.9929 94.58 58.2629 93.93 58.2629 93.09C58.2629 92.25 57.9929 91.6 57.4529 91.14C56.9129 90.68 56.1429 90.45 55.1429 90.45H51.3029V95.7ZM55.5329 104.58C56.5529 104.58 57.3429 104.34 57.9029 103.86C58.4829 103.38 58.7729 102.7 58.7729 101.82C58.7729 100.92 58.4729 100.22 57.8729 99.72C57.2729 99.2 56.4629 98.94 55.4429 98.94H51.3029V104.58H55.5329Z" fill="#1B1B1B"/>
<path d="M101.72 104.01H93.3802L92.0002 108H87.5902L95.1202 87.03H100.01L107.54 108H103.1L101.72 104.01ZM100.58 100.65L97.5502 91.89L94.5202 100.65H100.58Z" fill="#1B1B1B"/>
<path d="M131.835 97.5C131.835 95.44 132.295 93.6 133.215 91.98C134.155 90.34 135.425 89.07 137.025 88.17C138.645 87.25 140.455 86.79 142.455 86.79C144.795 86.79 146.845 87.39 148.605 88.59C150.365 89.79 151.595 91.45 152.295 93.57H147.465C146.985 92.57 146.305 91.82 145.425 91.32C144.565 90.82 143.565 90.57 142.425 90.57C141.205 90.57 140.115 90.86 139.155 91.44C138.215 92 137.475 92.8 136.935 93.84C136.415 94.88 136.155 96.1 136.155 97.5C136.155 98.88 136.415 100.1 136.935 101.16C137.475 102.2 138.215 103.01 139.155 103.59C140.115 104.15 141.205 104.43 142.425 104.43C143.565 104.43 144.565 104.18 145.425 103.68C146.305 103.16 146.985 102.4 147.465 101.4H152.295C151.595 103.54 150.365 105.21 148.605 106.41C146.865 107.59 144.815 108.18 142.455 108.18C140.455 108.18 138.645 107.73 137.025 106.83C135.425 105.91 134.155 104.64 133.215 103.02C132.295 101.4 131.835 99.56 131.835 97.5Z" fill="#1B1B1B"/>
<path d="M182.522 87.06V100.02C182.522 101.44 182.892 102.53 183.632 103.29C184.372 104.03 185.412 104.4 186.752 104.4C188.112 104.4 189.162 104.03 189.902 103.29C190.642 102.53 191.012 101.44 191.012 100.02V87.06H195.242V99.99C195.242 101.77 194.852 103.28 194.072 104.52C193.312 105.74 192.282 106.66 190.982 107.28C189.702 107.9 188.272 108.21 186.692 108.21C185.132 108.21 183.712 107.9 182.432 107.28C181.172 106.66 180.172 105.74 179.432 104.52C178.692 103.28 178.322 101.77 178.322 99.99V87.06H182.522Z" fill="#1B1B1B"/>
<path d="M229.03 108.21C227.57 108.21 226.25 107.96 225.07 107.46C223.91 106.96 222.99 106.24 222.31 105.3C221.63 104.36 221.28 103.25 221.26 101.97H225.76C225.82 102.83 226.12 103.51 226.66 104.01C227.22 104.51 227.98 104.76 228.94 104.76C229.92 104.76 230.69 104.53 231.25 104.07C231.81 103.59 232.09 102.97 232.09 102.21C232.09 101.59 231.9 101.08 231.52 100.68C231.14 100.28 230.66 99.97 230.08 99.75C229.52 99.51 228.74 99.25 227.74 98.97C226.38 98.57 225.27 98.18 224.41 97.8C223.57 97.4 222.84 96.81 222.22 96.03C221.62 95.23 221.32 94.17 221.32 92.85C221.32 91.61 221.63 90.53 222.25 89.61C222.87 88.69 223.74 87.99 224.86 87.51C225.98 87.01 227.26 86.76 228.7 86.76C230.86 86.76 232.61 87.29 233.95 88.35C235.31 89.39 236.06 90.85 236.2 92.73H231.58C231.54 92.01 231.23 91.42 230.65 90.96C230.09 90.48 229.34 90.24 228.4 90.24C227.58 90.24 226.92 90.45 226.42 90.87C225.94 91.29 225.7 91.9 225.7 92.7C225.7 93.26 225.88 93.73 226.24 94.11C226.62 94.47 227.08 94.77 227.62 95.01C228.18 95.23 228.96 95.49 229.96 95.79C231.32 96.19 232.43 96.59 233.29 96.99C234.15 97.39 234.89 97.99 235.51 98.79C236.13 99.59 236.44 100.64 236.44 101.94C236.44 103.06 236.15 104.1 235.57 105.06C234.99 106.02 234.14 106.79 233.02 107.37C231.9 107.93 230.57 108.21 229.03 108.21Z" fill="#1B1B1B"/>
<path d="M0 75H33.0732C49.0146 75 58.9004 66.7705 58.9004 53.624V53.5205C58.9004 43.6865 51.3955 36.2852 40.9922 35.5088V35.1982C49.1699 34.1113 55.3291 27.1758 55.3291 19.0498V18.9463C55.3291 7.50781 46.5303 0.313477 32.5039 0.313477H0V75ZM28.4668 11.9072C35.7129 11.9072 39.957 15.3232 39.957 21.2236V21.3271C39.957 27.5381 35.1953 31.2129 26.8623 31.2129H15.6309V11.9072H28.4668ZM28.7256 41.8232C37.9385 41.8232 42.959 45.5498 42.959 52.4854V52.5889C42.959 59.6279 38.042 63.3545 29.0879 63.3545H15.6309V41.8232H28.7256Z" fill="#1B1B1B"/>
<path d="M148.124 75.0791H202.227V64.1914C202.227 63.0868 201.332 62.1914 200.227 62.1914H163.755V0.392578H148.124V75.0791Z" fill="#1B1B1B"/>
<path d="M213.541 75.0791H229.172V13.2803H250.806V0.392578H191.958V13.2803H213.541V75.0791Z" fill="#1B1B1B"/>
<mask id="mask0" mask-type="alpha" maskUnits="userSpaceOnUse" x="63" y="0" width="77" height="76">
<circle cx="101.227" cy="38" r="38" fill="#DDDDDD"/>
</mask>
<g mask="url(#mask0)">
<circle cx="101.227" cy="38" r="34.5" stroke="#1B1B1B" stroke-width="7"/>
<path d="M108.934 21.0176C109.925 21.0176 110.822 21.4193 111.472 22.0688C112.121 22.7183 112.523 23.6155 112.523 24.6064C112.523 25.5974 112.121 26.4946 111.472 27.1441C110.822 27.7935 109.925 28.1952 108.934 28.1952C107.943 28.1952 107.046 27.7935 106.396 27.1441C105.747 26.4946 105.345 25.5974 105.345 24.6064C105.345 23.6155 105.747 22.7183 106.396 22.0688C107.046 21.4193 107.943 21.0176 108.934 21.0176V21.0176Z" fill="#1B1B1B"/>
<path d="M115.903 21C116.894 21 117.792 21.4017 118.441 22.0512C119.091 22.7007 119.492 23.5979 119.492 24.5888C119.492 25.5798 119.09 26.477 118.441 27.1265C117.792 27.7759 116.894 28.1777 115.903 28.1777C114.913 28.1777 114.015 27.776 113.366 27.1265C112.716 26.477 112.315 25.5798 112.315 24.5888C112.315 23.5979 112.716 22.7007 113.366 22.0512C114.015 21.4017 114.913 21 115.903 21V21Z" fill="#1B1B1B"/>
<path fill-rule="evenodd" clip-rule="evenodd" d="M91.018 37.3723L136.004 37.3723V39.4793L91.018 39.4793V37.3723ZM93.4335 23.686L122.68 23.686V25.793L92.8089 25.7931L93.4335 23.686ZM122.68 23.686L142.218 23.686V25.7931L122.68 25.793V23.686ZM89.2272 48.9183L142.218 48.6487V50.7558L89.2272 51.0253V48.9183Z" fill="#1B1B1B"/>
<path d="M104.966 46.0142C105.957 46.0142 106.854 46.4159 107.504 47.0653C108.153 47.7148 108.555 48.612 108.555 49.603C108.555 50.5939 108.153 51.4911 107.504 52.1406C106.854 52.7901 105.957 53.1918 104.966 53.1918C103.975 53.1918 103.078 52.7901 102.428 52.1406C101.779 51.4911 101.377 50.5939 101.377 49.603C101.377 48.612 101.779 47.7148 102.428 47.0653C103.078 46.4159 103.975 46.0142 104.966 46.0142V46.0142Z" fill="#1B1B1B"/>
<path d="M121.376 34.3896C122.367 34.3896 123.264 34.7914 123.913 35.4408C124.563 36.0903 124.965 36.9875 124.965 37.9785C124.965 38.9694 124.563 39.8666 123.913 40.5161C123.264 41.1655 122.367 41.5673 121.376 41.5673C120.385 41.5673 119.488 41.1655 118.838 40.5161C118.189 39.8666 117.787 38.9694 117.787 37.9785C117.787 36.9875 118.189 36.0903 118.838 35.4408C119.488 34.7914 120.385 34.3896 121.376 34.3896V34.3896Z" fill="#1B1B1B"/>
</g>
<path d="M95.4407 17.0031C95.2576 17.0162 95.0795 17.0751 94.9192 17.1754C94.7588 17.2756 94.6203 17.4148 94.5137 17.5829L80.0941 40.3112C79.9615 40.5191 79.8825 40.7643 79.8656 41.0195C79.8487 41.2748 79.8947 41.5304 79.9985 41.7581C80.1023 41.9859 80.2599 42.177 80.454 42.3104C80.648 42.4439 80.871 42.5145 81.0984 42.5144L87.1564 41.2299C87.6214 41.1313 88.0331 41.5459 87.9313 42.0102L84.8577 56.0239C84.7793 56.3362 84.8002 56.6695 84.9169 56.9663C85.0336 57.263 85.2388 57.5045 85.497 57.649C85.7551 57.7934 86.05 57.8317 86.3306 57.7573C86.6111 57.6829 86.8598 57.5004 87.0335 57.2414L101.865 34.5131C101.997 34.3061 102.076 34.0624 102.093 33.8084C102.111 33.5543 102.066 33.2998 101.964 33.0726C101.861 32.8453 101.706 32.654 101.514 32.5195C101.321 32.385 101.1 32.3125 100.874 32.3098L93.8646 32.9828C93.411 33.0263 93.0529 32.6046 93.1694 32.1641L96.7152 18.757C96.7669 18.5431 96.7725 18.3183 96.7314 18.1015C96.6904 17.8847 96.6039 17.682 96.4792 17.5104C96.3545 17.3388 96.1952 17.2033 96.0145 17.115C95.8339 17.0268 95.6372 16.9884 95.4407 17.0031Z" fill="#1B1B1B"/>
</svg>
