<svg width="214" height="221" viewBox="0 0 214 221" fill="none" xmlns="http://www.w3.org/2000/svg">
<mask id="mask0" mask-type="alpha" maskUnits="userSpaceOnUse" x="20" y="13" width="194" height="194">
<circle cx="117.261" cy="109.872" r="96.7179" fill="#DDDDDD"/>
</mask>
<g mask="url(#mask0)">
<path d="M213.979 109.872C213.979 163.288 170.677 206.59 117.261 206.59C94.4748 206.59 73.5291 198.71 57 185.527C75.9942 127.765 64.2133 105.048 21.7192 125C20.9449 120.071 20.543 115.018 20.543 109.872C45.9148 84.2121 73.9054 48.5299 86 18.3174C95.8061 14.97 106.321 13.1538 117.261 13.1538C170.677 13.1538 213.979 56.4559 213.979 109.872Z" fill="#FACB25" fill-opacity="0.1"/>
<path d="M140.87 51.6304C143.733 51.6304 146.325 52.7912 148.202 54.6677C150.078 56.5444 151.239 59.1369 151.239 62C151.239 64.8632 150.078 67.4557 148.202 69.3322C146.325 71.2087 143.733 72.3695 140.87 72.3695C138.007 72.3695 135.414 71.2088 133.537 69.3322C131.661 67.4557 130.5 64.8632 130.5 62C130.5 59.1369 131.661 56.5444 133.537 54.6677C135.414 52.7911 138.006 51.6304 140.87 51.6304Z" fill="#FACB25"/>
<path d="M161.832 51.9627C164.696 51.9627 167.288 53.1235 169.164 55C171.041 56.8767 172.202 59.4692 172.202 62.3323C172.202 65.1955 171.041 67.788 169.164 69.6645C167.288 71.541 164.696 72.7018 161.832 72.7018C158.969 72.7018 156.377 71.5411 154.5 69.6645C152.624 67.788 151.463 65.1956 151.463 62.3323C151.463 59.4692 152.623 56.8767 154.5 55C156.377 53.1234 158.969 51.9627 161.832 51.9627Z" fill="#FACB25"/>
<path fill-rule="evenodd" clip-rule="evenodd" d="M78.4794 105.737H216.5V111.825H78.4794V105.737ZM63.5 59.5L178.771 59.5V65.588L63.5 65.588V59.5ZM178.771 59.5L235.225 59.5V65.588L178.771 65.588V59.5ZM79.2496 146.191L235.225 145.412V151.5L79.2496 152.279V146.191Z" fill="#FACB25"/>
<path d="M140.37 139C143.233 139 145.825 140.161 147.702 142.037C149.578 143.914 150.739 146.506 150.739 149.369C150.739 152.233 149.578 154.825 147.702 156.702C145.825 158.578 143.233 159.739 140.37 159.739C137.506 159.739 134.914 158.578 133.037 156.702C131.161 154.825 130 152.233 130 149.369C130 146.506 131.161 143.914 133.037 142.037C134.914 140.161 137.506 139 140.37 139Z" fill="#FACB25"/>
<path d="M172.939 98.4119C175.803 98.4119 178.395 99.5727 180.271 101.449C182.148 103.326 183.309 105.918 183.309 108.781C183.309 111.645 182.148 114.237 180.271 116.114C178.395 117.99 175.803 119.151 172.939 119.151C170.076 119.151 167.484 117.99 165.607 116.114C163.731 114.237 162.57 111.645 162.57 108.781C162.57 105.918 163.731 103.326 165.607 101.449C167.484 99.5727 170.076 98.4119 172.939 98.4119V98.4119Z" fill="#FACB25"/>
</g>
<g filter="url(#filter0_ii)">
<path d="M94.0644 0.016528C92.9591 0.0877857 91.8835 0.406438 90.9154 0.949407C89.9473 1.49238 89.111 2.24605 88.4672 3.15576L1.40057 126.214C0.599934 127.34 0.122424 128.667 0.0205706 130.049C-0.0812824 131.431 0.196472 132.815 0.823274 134.048C1.45008 135.281 2.40164 136.316 3.57328 137.039C4.74493 137.761 6.09125 138.143 7.46414 138.143L44.7207 130.926C46.8461 130.515 48.6891 132.432 48.194 134.539L30.1637 211.287C29.6898 212.978 29.8162 214.783 30.521 216.39C31.2258 217.996 32.4646 219.304 34.0233 220.086C35.582 220.868 37.3624 221.076 39.0566 220.673C40.7508 220.27 42.2523 219.282 43.3013 217.88L132.856 94.8213C133.652 93.7008 134.129 92.3809 134.234 91.0056C134.339 89.6303 134.068 88.2523 133.451 87.0218C132.833 85.7913 131.893 84.7554 130.733 84.0273C129.572 83.2991 128.236 82.9064 126.87 82.8922L79.4558 90.2546C77.2478 90.5975 75.4599 88.4819 76.1659 86.3621L101.76 9.51285C102.072 8.35459 102.106 7.13772 101.858 5.96374C101.61 4.78977 101.088 3.6927 100.335 2.76366C99.5821 1.83462 98.6202 1.10059 97.5295 0.622761C96.4388 0.144929 95.2507 -0.0629338 94.0644 0.016528Z" fill="#FACB25"/>
</g>
<defs>
<filter id="filter0_ii" x="0" y="0" width="134.256" height="220.873" filterUnits="userSpaceOnUse" color-interpolation-filters="sRGB">
<feFlood flood-opacity="0" result="BackgroundImageFix"/>
<feBlend mode="normal" in="SourceGraphic" in2="BackgroundImageFix" result="shape"/>
<feColorMatrix in="SourceAlpha" type="matrix" values="0 0 0 0 0 0 0 0 0 0 0 0 0 0 0 0 0 0 127 0" result="hardAlpha"/>
<feOffset dx="7.46194"/>
<feComposite in2="hardAlpha" operator="arithmetic" k2="-1" k3="1"/>
<feColorMatrix type="matrix" values="0 0 0 0 0.9 0 0 0 0 0.712993 0 0 0 0 0.0525 0 0 0 1 0"/>
<feBlend mode="normal" in2="shape" result="effect1_innerShadow"/>
<feColorMatrix in="SourceAlpha" type="matrix" values="0 0 0 0 0 0 0 0 0 0 0 0 0 0 0 0 0 0 127 0" result="hardAlpha"/>
<feOffset dx="-7.46194"/>
<feComposite in2="hardAlpha" operator="arithmetic" k2="-1" k3="1"/>
<feColorMatrix type="matrix" values="0 0 0 0 0.995833 0 0 0 0 0.841101 0 0 0 0 0.294601 0 0 0 1 0"/>
<feBlend mode="normal" in2="effect1_innerShadow" result="effect2_innerShadow"/>
</filter>
</defs>
</svg>
